<svg id="Layer_1" data-name="Layer 1" xmlns="http://www.w3.org/2000/svg" viewBox="0 0 132.99 248.09"><defs><style>.cls-1{fill:#ecf0f1;}</style></defs><title>be-logo-w</title><path class="cls-1" d="M194.64,200a12.67,12.67,0,0,0-8.71-2.95q-5,0-7.69,2.31-6.53,6.15-10.63,9.74a76.76,76.76,0,0,1-9,6.73,37.28,37.28,0,0,1-10.06,4.61,41.88,41.88,0,0,1-11.47,1.47,32.15,32.15,0,0,1-29.53-18.32,46.4,46.4,0,0,1-4.8-21H171.2q13.71,0,21.27-3.91t7.56-17.1a58.79,58.79,0,0,0-7.3-27.93q-7.3-13.71-22-22.36t-35.17-8.65a78.19,78.19,0,0,0-28.7,5.06c-1.52.59-3,1.25-4.42,1.94V18.28A17.37,17.37,0,0,0,85.14,1H84.49A17.37,17.37,0,0,0,67.17,18.28V168.53c-0.09,1.68-.14,3.41-0.13,5.17,0.13,14,.47,51.84,25.24,67.43,6.78,4.27,12.67,5.15,24.05,6.87,4.32,0.65,30.3,4.26,53-7.36a78.2,78.2,0,0,0,13.71-9.1c7.45-6.13,10.44-10.85,11.21-12.17Q198,213,198,208.29,198,202.91,194.64,200Zm-81.53-64.5q8.39-9,21.46-9,13.71,0,22.1,8.9t9.67,26.84H102.93Q104.72,144.5,113.11,135.47Z" transform="translate(-67.03 -0.96)"/></svg>