<?xml version="1.0" encoding="utf-8"?>
<!-- Generator: Adobe Illustrator 19.2.1, SVG Export Plug-In . SVG Version: 6.00 Build 0)  -->
<svg version="1.1" id="Layer_1" xmlns="http://www.w3.org/2000/svg" xmlns:xlink="http://www.w3.org/1999/xlink" x="0px" y="0px"
	 viewBox="0 0 250 250" style="enable-background:new 0 0 250 250;" xml:space="preserve">
<path d="M194.6,200c-2.2-2-5.1-2.9-8.7-2.9c-3.3,0-5.9,0.8-7.7,2.3c-4.4,4.1-7.9,7.3-10.6,9.7c-2.7,2.4-5.7,4.6-9,6.7
	c-3.2,2.1-6.6,3.6-10.1,4.6c-3.5,1-7.3,1.5-11.5,1.5c-6.2,0-11.9-1.5-17.1-4.6c-5.2-3.1-9.3-7.6-12.4-13.7c-3.1-6.1-4.7-13.1-4.8-21
	h68.4c9.1,0,16.2-1.3,21.3-3.9c5-2.6,7.6-8.3,7.6-17.1c0-9.5-2.4-18.8-7.3-27.9c-4.9-9.1-12.2-16.6-22-22.4
	c-9.8-5.8-21.5-8.6-35.2-8.6c-10.5,0-20.1,1.7-28.7,5.1c-1.5,0.6-3,1.3-4.4,1.9V18.3C102.5,8.8,94.7,1,85.1,1h-0.7
	C75,1,67.2,8.8,67.2,18.3v150.3c-0.1,1.7-0.1,3.4-0.1,5.2c0.1,14,0.5,51.8,25.2,67.4c6.8,4.3,12.7,5.2,24.1,6.9
	c4.3,0.7,30.3,4.3,53-7.4c1.6-0.8,7.3-3.8,13.7-9.1c7.4-6.1,10.4-10.8,11.2-12.2c2.5-4.2,3.7-7.9,3.7-11.1
	C198,204.7,196.9,201.9,194.6,200z M113.1,135.5c5.6-6,12.7-9,21.5-9c9.1,0,16.5,3,22.1,8.9c5.6,5.9,8.8,14.9,9.7,26.8h-63.4
	C104.1,150.4,107.5,141.5,113.1,135.5z"/>
</svg>
